<svg xmlns="http://www.w3.org/2000/svg" width="2237" height="1668" viewBox="0 0 2237 1668" version="1.1"><path d="" stroke="none" fill="#60447c" fill-rule="evenodd"/><path d="M 126.879 274.645 C 124.816 277.131, 124.809 1061.860, 126.872 1064.346 C 128.119 1065.848, 133.365 1066, 184.124 1066 L 240.002 1066 239.751 669.750 L 239.500 273.500 183.879 273.242 C 133.055 273.006, 128.140 273.127, 126.879 274.645 M 1812 462.103 C 1792.422 463.643, 1779.997 465.635, 1761.500 470.201 C 1749.499 473.163, 1728.594 479.787, 1722 482.717 C 1713.812 486.355, 1689.992 498.180, 1684 501.581 C 1675.818 506.226, 1656.155 519.188, 1653.500 521.687 C 1652.400 522.723, 1650.514 524.253, 1649.309 525.088 C 1640.808 530.977, 1616.588 553.839, 1607.991 564.090 C 1606.879 565.416, 1605.143 567.400, 1604.133 568.500 C 1594.309 579.195, 1574.006 610.132, 1565.083 628 C 1556.619 644.950, 1547.773 668.411, 1543.967 684 C 1543.363 686.475, 1542.419 690.300, 1541.870 692.500 C 1539.350 702.591, 1536.404 719.040, 1535.062 730.500 C 1533.870 740.688, 1533.857 787.123, 1535.044 797 C 1536.593 809.890, 1539.392 825.652, 1541.882 835.500 C 1542.439 837.700, 1543.622 842.425, 1544.513 846 C 1549.991 867.989, 1563.917 900.222, 1576.570 920.200 C 1579.112 924.215, 1582.387 929.469, 1583.847 931.875 C 1587.736 938.288, 1599.987 954.592, 1606.107 961.500 C 1615.552 972.161, 1636.321 992.415, 1643 997.479 C 1646.575 1000.189, 1649.725 1002.662, 1650 1002.974 C 1651.098 1004.220, 1668.842 1016.979, 1674 1020.232 C 1683.590 1026.279, 1695.907 1032.782, 1710 1039.238 C 1724.461 1045.863, 1727.145 1047, 1728.327 1047 C 1729.027 1047, 1730.028 1047.359, 1730.550 1047.798 C 1731.073 1048.237, 1733.975 1049.400, 1737 1050.383 C 1740.025 1051.366, 1743.400 1052.525, 1744.500 1052.960 C 1746.343 1053.689, 1753.420 1055.716, 1762 1057.974 C 1766.803 1059.239, 1778.707 1061.672, 1789.500 1063.596 C 1800.840 1065.618, 1856.080 1066.675, 1869.500 1065.127 C 1886.439 1063.174, 1909.267 1059.075, 1910.586 1057.750 C 1910.997 1057.338, 1912.295 1057, 1913.470 1057 C 1915.860 1057, 1939.798 1049.383, 1941.446 1048.098 C 1942.026 1047.646, 1943.749 1046.977, 1945.277 1046.612 C 1946.804 1046.247, 1950.629 1044.799, 1953.777 1043.394 C 1963.255 1039.163, 1972.408 1034.968, 1974 1034.125 C 1988.983 1026.193, 1999.248 1020.295, 2002.500 1017.748 C 2003.050 1017.318, 2007.100 1014.428, 2011.500 1011.326 C 2038.435 992.341, 2064.848 966.156, 2082.188 941.247 C 2096.616 920.522, 2105.298 905.572, 2111.951 890 C 2113.713 885.875, 2115.961 880.700, 2116.947 878.500 C 2117.933 876.300, 2119.051 873.375, 2119.432 872 C 2119.814 870.625, 2120.547 868.487, 2121.063 867.250 C 2123.396 861.648, 2124.005 859.918, 2126.911 850.630 C 2128.610 845.202, 2130 839.936, 2130 838.927 C 2130 837.919, 2130.406 836.060, 2130.902 834.797 C 2132.384 831.026, 2135 818.446, 2135 815.093 C 2135 813.377, 2135.445 811.191, 2135.988 810.236 C 2137.493 807.591, 2139.281 782.487, 2139.281 764 C 2139.281 746.541, 2137.687 722.852, 2136.118 717 C 2135.601 715.075, 2134.391 709, 2133.428 703.500 C 2132.464 698, 2131.299 693.072, 2130.838 692.550 C 2130.377 692.028, 2130 690.617, 2130 689.415 C 2130 687.334, 2127.692 678.771, 2125.981 674.500 C 2125.540 673.400, 2124.446 670.025, 2123.551 667 C 2122.655 663.975, 2121.513 660.600, 2121.011 659.500 C 2120.510 658.400, 2118.460 653.450, 2116.456 648.500 C 2108.547 628.964, 2104.290 620.609, 2093.416 603.280 C 2073.225 571.103, 2048.395 543.758, 2020.476 522.952 C 2017.190 520.504, 2013.628 517.712, 2012.562 516.750 C 2011.495 515.788, 2010.290 515, 2009.883 515 C 2009.476 515, 2008.548 514.437, 2007.821 513.748 C 2005.328 511.387, 1998.314 507.129, 1984.500 499.591 C 1983.400 498.991, 1982.275 498.252, 1982 497.950 C 1980.792 496.621, 1955.629 484.743, 1947 481.429 C 1905.007 465.301, 1857.614 458.517, 1812 462.103 M 550 463.103 C 530.422 464.643, 517.997 466.635, 499.500 471.201 C 487.499 474.163, 466.594 480.787, 460 483.717 C 451.812 487.355, 427.992 499.180, 422 502.581 C 413.818 507.226, 394.155 520.188, 391.500 522.687 C 390.400 523.723, 388.514 525.253, 387.309 526.088 C 378.808 531.977, 354.588 554.839, 345.991 565.090 C 344.879 566.416, 343.143 568.400, 342.133 569.500 C 332.309 580.195, 312.006 611.132, 303.083 629 C 294.619 645.950, 285.773 669.411, 281.967 685 C 281.363 687.475, 280.419 691.300, 279.870 693.500 C 277.350 703.591, 274.404 720.040, 273.062 731.500 C 271.870 741.688, 271.857 788.123, 273.044 798 C 274.593 810.890, 277.392 826.652, 279.882 836.500 C 280.439 838.700, 281.622 843.425, 282.513 847 C 287.991 868.989, 301.917 901.222, 314.570 921.200 C 317.112 925.215, 320.387 930.469, 321.847 932.875 C 325.736 939.288, 337.987 955.592, 344.107 962.500 C 353.552 973.161, 374.321 993.415, 381 998.479 C 384.575 1001.189, 387.725 1003.662, 388 1003.974 C 389.098 1005.220, 406.842 1017.979, 412 1021.232 C 421.590 1027.279, 433.907 1033.782, 448 1040.238 C 462.461 1046.863, 465.145 1048, 466.327 1048 C 467.027 1048, 468.028 1048.359, 468.550 1048.798 C 469.073 1049.237, 471.975 1050.400, 475 1051.383 C 478.025 1052.366, 481.400 1053.525, 482.500 1053.960 C 484.343 1054.689, 491.420 1056.716, 500 1058.974 C 504.803 1060.239, 516.707 1062.672, 527.500 1064.596 C 538.840 1066.618, 594.080 1067.675, 607.500 1066.127 C 624.439 1064.174, 647.267 1060.075, 648.586 1058.750 C 648.997 1058.338, 650.295 1058, 651.470 1058 C 653.860 1058, 677.798 1050.383, 679.446 1049.098 C 680.026 1048.646, 681.749 1047.977, 683.277 1047.612 C 684.804 1047.247, 688.629 1045.799, 691.777 1044.394 C 701.255 1040.163, 710.408 1035.968, 712 1035.125 C 726.983 1027.193, 737.248 1021.295, 740.500 1018.748 C 741.050 1018.318, 745.100 1015.428, 749.500 1012.326 C 776.435 993.341, 802.848 967.156, 820.188 942.247 C 834.616 921.522, 843.298 906.572, 849.951 891 C 851.713 886.875, 853.961 881.700, 854.947 879.500 C 855.933 877.300, 857.051 874.375, 857.432 873 C 857.814 871.625, 858.547 869.487, 859.063 868.250 C 861.396 862.648, 862.005 860.918, 864.911 851.630 C 866.610 846.202, 868 840.936, 868 839.927 C 868 838.919, 868.406 837.060, 868.902 835.797 C 870.384 832.026, 873 819.446, 873 816.093 C 873 814.377, 873.445 812.191, 873.988 811.236 C 875.493 808.591, 877.281 783.487, 877.281 765 C 877.281 747.541, 875.687 723.852, 874.118 718 C 873.601 716.075, 872.391 710, 871.428 704.500 C 870.464 699, 869.299 694.072, 868.838 693.550 C 868.377 693.028, 868 691.617, 868 690.415 C 868 688.334, 865.692 679.771, 863.981 675.500 C 863.540 674.400, 862.446 671.025, 861.551 668 C 860.655 664.975, 859.513 661.600, 859.011 660.500 C 858.510 659.400, 856.460 654.450, 854.456 649.500 C 846.547 629.964, 842.290 621.609, 831.416 604.280 C 811.225 572.103, 786.395 544.758, 758.476 523.952 C 755.190 521.504, 751.628 518.712, 750.562 517.750 C 749.495 516.788, 748.290 516, 747.883 516 C 747.476 516, 746.548 515.437, 745.821 514.748 C 743.328 512.387, 736.314 508.129, 722.500 500.591 C 721.400 499.991, 720.275 499.252, 720 498.950 C 718.792 497.621, 693.629 485.743, 685 482.429 C 643.007 466.301, 595.614 459.517, 550 463.103 M 1184 472.026 C 1171.017 473.151, 1158.950 474.721, 1150 476.451 C 1139.225 478.533, 1126.814 481.611, 1123.500 483.023 C 1122.400 483.491, 1120.375 484.167, 1119 484.525 C 1101.142 489.170, 1065.870 506.245, 1045 520.347 C 1018.929 537.964, 1000.973 554.678, 977.154 583.502 C 968.227 594.305, 954.288 616.489, 945.782 633.429 C 930.956 662.956, 921.864 694.161, 917.060 732 C 915.863 741.432, 915.844 785.992, 917.034 796 C 917.873 803.061, 918.279 805.589, 920.967 820.500 C 923.680 835.547, 929.688 857.917, 933.052 865.500 C 933.540 866.600, 935.324 871.051, 937.015 875.390 C 946.906 900.765, 967.453 934.632, 985.011 954.500 C 995.378 966.231, 1009.072 979.924, 1017.500 986.988 C 1029.171 996.770, 1047.036 1010.050, 1050.500 1011.518 C 1052.150 1012.218, 1057.100 1014.348, 1061.500 1016.251 C 1065.900 1018.155, 1071.525 1020.513, 1074 1021.491 C 1076.475 1022.468, 1080.875 1024.333, 1083.777 1025.634 C 1086.680 1026.935, 1089.627 1028, 1090.327 1028 C 1091.027 1028, 1092.028 1028.359, 1092.550 1028.798 C 1093.073 1029.237, 1095.975 1030.400, 1099 1031.383 C 1102.025 1032.366, 1105.400 1033.525, 1106.500 1033.960 C 1108.375 1034.701, 1116.018 1036.887, 1124 1038.964 C 1130.523 1040.662, 1141.458 1042.856, 1152.500 1044.681 C 1164.736 1046.704, 1167.797 1046.722, 1299.400 1045.516 C 1355.610 1045.001, 1370.460 1045.125, 1371.072 1046.117 C 1372.043 1047.687, 1368.566 1057.008, 1362.478 1069.156 C 1341.629 1110.758, 1305.164 1142.557, 1260.741 1157.875 C 1239.629 1165.155, 1218.433 1168.288, 1193.680 1167.788 C 1174.380 1167.398, 1174.616 1167.233, 1171.960 1182.953 C 1171.453 1185.952, 1171.010 1204.338, 1170.974 1223.809 C 1170.917 1255.051, 1171.102 1259.507, 1172.554 1261.723 L 1174.199 1264.233 1203.349 1263.712 C 1233.996 1263.165, 1243.465 1262.197, 1264.653 1257.445 C 1337.486 1241.109, 1400.808 1195.257, 1439.524 1130.818 C 1455.496 1104.235, 1467.891 1074.865, 1470.045 1058.500 C 1470.756 1053.102, 1471.068 984.042, 1471.006 846.167 L 1470.915 641.834 1468.488 634.167 C 1464.858 622.702, 1458.981 611.987, 1443.236 588.128 C 1429.048 566.630, 1404.173 542.463, 1375.500 522.322 C 1342.088 498.851, 1293.424 479.209, 1258.500 475.097 C 1253 474.449, 1246.546 473.478, 1244.157 472.939 C 1238.372 471.632, 1195.973 470.989, 1184 472.026 M 1830.943 570.350 C 1830.636 570.679, 1825.911 571.440, 1820.443 572.041 C 1734.781 581.456, 1666.430 645.640, 1652.072 730.147 C 1649.306 746.431, 1648.604 760.676, 1649.913 774 C 1653.252 808.009, 1663.662 837.531, 1681.863 864.606 C 1701.825 894.300, 1725.791 914.601, 1761.300 931.897 C 1779.300 940.665, 1782.641 941.886, 1798.500 945.499 C 1858.368 959.136, 1923.458 940.677, 1969.288 897.064 C 2020.337 848.484, 2040.011 775.368, 2020.390 707.153 C 2011.650 676.767, 1995.345 649.260, 1972.549 626.440 C 1943.772 597.635, 1909.429 579.712, 1870 572.924 C 1858.574 570.957, 1832.009 569.206, 1830.943 570.350 M 568.943 571.350 C 568.636 571.679, 563.911 572.440, 558.443 573.041 C 472.781 582.456, 404.430 646.640, 390.072 731.147 C 387.306 747.431, 386.604 761.676, 387.913 775 C 391.252 809.009, 401.662 838.531, 419.863 865.606 C 439.825 895.300, 463.791 915.601, 499.300 932.897 C 517.300 941.665, 520.641 942.886, 536.500 946.499 C 596.368 960.136, 661.458 941.677, 707.288 898.064 C 758.337 849.484, 778.011 776.368, 758.390 708.153 C 749.650 677.767, 733.345 650.260, 710.549 627.440 C 681.772 598.635, 647.429 580.712, 608 573.924 C 596.574 571.957, 570.009 570.206, 568.943 571.350 M 1199.500 578.079 C 1196.750 578.527, 1189.589 579.626, 1183.587 580.521 C 1162.722 583.631, 1140.518 591.181, 1122.907 601.155 C 1082.948 623.786, 1052.659 659.684, 1039.088 700.500 C 1024.818 743.418, 1024.676 776.596, 1038.582 819.143 C 1047.263 845.706, 1062.235 869.534, 1083.418 890.500 C 1107.171 914.010, 1122.629 921.300, 1162 927.562 C 1177.303 929.996, 1182.018 930.251, 1227 931.079 C 1276.103 931.982, 1309.207 931.671, 1347.675 929.945 C 1368.812 928.997, 1371.849 928.596, 1373.235 926.573 C 1373.639 925.983, 1373.975 871.500, 1373.982 805.500 L 1373.995 685.500 1367.987 672.548 C 1360.688 656.813, 1352.045 644.976, 1336.534 629.470 C 1322.910 615.851, 1307.575 604.270, 1293.340 596.849 C 1266.205 582.703, 1223.504 574.162, 1199.500 578.079" stroke="none" fill="#5c447c" fill-rule="evenodd"/></svg>